0
SECTION
2
HEADER
9
$INSUNITS
70
4
9
$ACADVER
1
AC1014
9
$HANDSEED
5
FFFF
0
ENDSEC
0
SECTION
2
TABLES
0
TABLE
2
VPORT
5
8
100
AcDbSymbolTable
0
ENDTAB
0
TABLE
2
LTYPE
5
5
100
AcDbSymbolTable
0
LTYPE
5
14
100
AcDbSymbolTableRecord
100
AcDbLinetypeTableRecord
2
BYBLOCK
70
0
0
LTYPE
5
15
100
AcDbSymbolTableRecord
100
AcDbLinetypeTableRecord
2
BYLAYER
70
0
0
ENDTAB
0
TABLE
2
LAYER
5
2
100
AcDbSymbolTable
70
2
0
LAYER
5
50
100
AcDbSymbolTableRecord
100
AcDbLayerTableRecord
2
0
70
0
6
CONTINUOUS
0
ENDTAB
0
TABLE
2
STYLE
5
3
100
AcDbSymbolTable
70
1
0
STYLE
5
11
100
AcDbSymbolTableRecord
100
AcDbTextStyleTableRecord
2
STANDARD
70
0
0
ENDTAB
0
TABLE
2
VIEW
5
6
100
AcDbSymbolTable
70
0
0
ENDTAB
0
TABLE
2
UCS
5
7
100
AcDbSymbolTable
70
0
0
ENDTAB
0
TABLE
2
APPID
5
9
100
AcDbSymbolTable
70
2
0
APPID
5
12
100
AcDbSymbolTableRecord
100
AcDbRegAppTableRecord
2
ACAD
70
0
0
ENDTAB
0
TABLE
2
DIMSTYLE
5
A
100
AcDbSymbolTable
70
1
0
ENDTAB
0
TABLE
2
BLOCK_RECORD
5
1
100
AcDbSymbolTable
70
1
0
BLOCK_RECORD
5
1F
100
AcDbSymbolTableRecord
100
AcDbBlockTableRecord
2
*MODEL_SPACE
0
BLOCK_RECORD
5
1B
100
AcDbSymbolTableRecord
100
AcDbBlockTableRecord
2
*PAPER_SPACE
0
ENDTAB
0
ENDSEC
0
SECTION
2
BLOCKS
0
BLOCK
5
20
100
AcDbEntity
100
AcDbBlockBegin
2
*MODEL_SPACE
0
ENDBLK
5
21
100
AcDbEntity
100
AcDbBlockEnd
0
BLOCK
5
1C
100
AcDbEntity
100
AcDbBlockBegin
2
*PAPER_SPACE
0
ENDBLK
5
1D
100
AcDbEntity
100
AcDbBlockEnd
0
ENDSEC
0
SECTION
2
ENTITIES
0
LWPOLYLINE
5
100
100
AcDbEntity
8
0
100
AcDbPolyline
90
76
70
1
43
0.0
10
-221.99999999999307
20
2.9999999999999982
10
-215.99999991059306
20
2.9999999999999982
10
-215.99999991059306
20
13.000000149000002
10
-222.00000330809419
20
13.000000149000002
10
-222.00000000000003
20
25
10
-58.000000000000007
20
25
10
-58.000000000000007
20
70
10
-222.00000000000003
20
70
10
-221.99999999999307
20
83
10
-216.00000323355778
20
83
10
-215.99999991059306
20
93.000000149000002
10
-222.00000330809419
20
93.000000149000002
10
-222.00000330809419
20
102.0000015049942
10
-197.9999999255046
20
102.00000150501729
10
-197.9999999255046
20
96.000001430517301
10
-177.99999992550465
20
96.000001430517301
10
-177.99999992550465
20
102.00000150501729
10
-157.99999992550465
20
102.00000150501729
10
-157.99999992550465
20
96.000001430517301
10
-137.99999992550465
20
96.000001430517301
10
-137.99999992550465
20
102.00000150501729
10
-117.99999992550465
20
102.00000150501729
10
-117.99999992550465
20
96.000001430517301
10
-97.999999925504653
20
96.000001430517301
10
-97.999999925504653
20
102.00000150501729
10
-77.999999925504653
20
102.00000150501729
10
-77.999999925504653
20
96.000001430517301
10
-57.999999925504646
20
96.000001430517301
10
-57.999999925504646
20
102.00000150501729
10
-37.999999925504646
20
102.00000150501729
10
-37.999999925504646
20
96.000001430517301
10
-17.999999925504646
20
96.000001430517301
10
-17.999999925504646
20
102.00000150501729
10
6.0000000745058202
20
102.0000015049942
10
6.0000000894069672
20
93.000000149000002
10
6.9666494795228573e-12
20
93.000000149000002
10
6.9666494795228573e-12
20
83
10
6.0000000894069672
20
83
10
6.0000000894069672
20
73.000000149000002
10
6.9666494795228573e-12
20
73.000000149000002
10
6.9666494795228573e-12
20
63
10
6.0000000894069672
20
63
10
6.0000000894069672
20
53.000000149000002
10
6.9666494795228573e-12
20
53.000000149000002
10
6.9666494795228573e-12
20
43
10
6.0000000894069672
20
43
10
6.0000000894069672
20
33.000000149000002
10
6.9666494795228573e-12
20
33.000000149000002
10
6.9666494795228573e-12
20
23
10
6.0000000894069672
20
23
10
6.0000000894069672
20
13.000000149000002
10
6.9666494795228573e-12
20
13.000000149000002
10
6.9666494795228573e-12
20
3.0000000000000004
10
6.0000000894069672
20
3.0000000000000004
10
6.0000000745058202
20
-6.0000000745058024
10
-17.999999925504646
20
-5.9999985694827096
10
-17.999999925504646
20
1.505017284131327e-06
10
-37.999999925504646
20
1.505017284131327e-06
10
-37.999999925504646
20
-5.9999985694827096
10
-57.999999925504646
20
-5.9999985694827096
10
-57.999999925504646
20
1.505017284131327e-06
10
-77.999999925504653
20
1.505017284131327e-06
10
-77.999999925504653
20
-5.9999985694827096
10
-97.999999925504653
20
-5.9999985694827096
10
-97.999999925504653
20
1.505017284131327e-06
10
-117.99999992550465
20
1.505017284131327e-06
10
-117.99999992550465
20
-5.9999985694827096
10
-137.99999992550465
20
-5.9999985694827096
10
-137.99999992550465
20
1.505017284131327e-06
10
-157.99999992550465
20
1.505017284131327e-06
10
-157.99999992550465
20
-5.9999985694827096
10
-177.99999992550465
20
-5.9999985694827096
10
-177.99999992550465
20
1.505017284131327e-06
10
-197.9999999255046
20
1.505017284131327e-06
10
-197.9999999255046
20
-5.9999985694827096
10
-222.00000330809419
20
-6.0000000745058024
0
CIRCLE
5
101
100
AcDbEntity
8
0
100
AcDbCircle
10
-9.0000002682209015
20
18.000000134110458
30
0
40
1.7000000000000002
210
0
220
-0
230
1
0
CIRCLE
5
102
100
AcDbEntity
8
0
100
AcDbCircle
10
-9.0000002682209015
20
78.000000134110451
30
0
40
1.7000000000000002
210
0
220
-0
230
1
0
CIRCLE
5
103
100
AcDbEntity
8
0
100
AcDbCircle
10
-183.00000026822093
20
18.000000134110458
30
0
40
1.7000000000000002
210
0
220
-0
230
1
0
CIRCLE
5
104
100
AcDbEntity
8
0
100
AcDbCircle
10
-183.00000026822093
20
78.000000134110451
30
0
40
1.7000000000000002
210
0
220
-0
230
1
0
ENDSEC
0
SECTION
2
OBJECTS
0
DICTIONARY
5
C
100
AcDbDictionary
3
ACAD_GROUP
350
D
3
ACAD_MLINESTYLE
350
17
0
DICTIONARY
5
D
100
AcDbDictionary
0
DICTIONARY
5
1A
330
C
100
AcDbDictionary
0
DICTIONARY
5
17
100
AcDbDictionary
0
ENDSEC
0
EOF
